<?xml version="1.0" standalone="no"?>
<!DOCTYPE svg PUBLIC "-//W3C//DTD SVG 20010904//EN"
 "http://www.w3.org/TR/2001/REC-SVG-20010904/DTD/svg10.dtd">
<svg version="1.0" xmlns="http://www.w3.org/2000/svg"
 width="676.000000pt" height="466.000000pt" viewBox="0 0 676.000000 466.000000"
 preserveAspectRatio="xMidYMid meet">

<g transform="translate(0.000000,466.000000) scale(0.100000,-0.100000)"
fill="##863764" stroke="none">
<path d="M3229 4485 c-112 -28 -204 -79 -327 -183 l-54 -46 -121 -1 c-231 -4
-385 -79 -493 -243 -46 -69 -100 -221 -109 -308 -7 -61 -9 -64 -52 -92 -71
-46 -180 -160 -228 -237 -73 -118 -90 -185 -89 -355 0 -136 2 -151 32 -242 18
-54 40 -104 48 -113 37 -37 111 2 101 53 -3 15 -18 65 -33 112 -37 117 -40
273 -6 371 27 80 66 143 130 211 45 48 151 128 170 128 22 0 40 40 45 102 23
261 149 430 356 478 36 9 94 11 175 7 l120 -5 74 69 c141 132 259 184 401 177
118 -6 185 -41 304 -163 l87 -89 43 12 c231 67 398 50 505 -52 84 -79 119
-182 129 -379 7 -142 6 -141 86 -169 173 -61 304 -203 338 -366 18 -89 6 -229
-30 -342 -36 -111 -37 -131 -13 -153 25 -22 58 -21 81 2 29 29 77 192 90 301
35 293 -107 538 -380 657 l-46 21 -6 103 c-10 173 -56 301 -143 398 -52 58
-153 113 -241 132 -68 14 -254 7 -325 -11 l-48 -12 -80 76 c-153 143 -316 193
-491 151z"/>
<path d="M3657 3482 c-15 -16 -17 -49 -17 -261 0 -190 -3 -242 -12 -238 -7 2
-125 42 -263 87 -766 253 -696 232 -722 215 -26 -17 -32 -65 -10 -84 8 -6 220
-78 473 -161 252 -83 475 -157 494 -164 l35 -14 3 -447 c1 -311 6 -452 13
-462 16 -19 63 -16 82 5 15 16 17 52 17 304 l0 286 83 45 c45 24 156 82 246
128 174 89 202 113 183 154 -21 45 -52 42 -164 -18 -220 -117 -337 -177 -342
-177 -3 0 -6 176 -6 390 0 377 -1 391 -20 410 -25 25 -52 26 -73 2z"/>
<path d="M1434 2390 c-104 -52 -206 -204 -259 -388 l-22 -77 -44 -8 c-57 -10
-102 -4 -339 43 -388 77 -478 71 -587 -42 -127 -131 -119 -349 18 -472 23 -21
62 -47 87 -58 68 -30 233 -21 464 26 97 19 219 41 270 47 54 7 100 18 111 27
25 22 21 59 -8 78 -31 20 -80 15 -360 -38 -254 -48 -396 -59 -443 -34 -80 41
-131 141 -117 229 10 64 49 123 101 153 44 26 50 27 147 21 61 -3 183 -23 302
-48 142 -30 226 -42 289 -43 l88 -1 -6 -60 c-5 -46 -2 -66 10 -83 17 -24 65
-30 82 -9 6 6 15 56 21 110 14 127 43 232 90 332 69 144 129 205 203 205 50 0
68 9 79 38 7 18 5 31 -6 48 -13 21 -24 24 -73 24 -37 0 -71 -7 -98 -20z"/>
<path d="M2227 2392 c-22 -24 -21 -55 1 -75 17 -15 77 -17 659 -17 607 0 641
1 656 18 22 24 21 55 -1 75 -17 15 -77 17 -659 17 -607 0 -641 -1 -656 -18z"/>
<path d="M3837 2392 c-22 -24 -21 -55 1 -75 17 -16 84 -17 754 -17 l736 0 30
-37 c38 -49 65 -102 91 -182 11 -35 26 -70 32 -77 14 -17 61 -18 77 -2 40 40
-32 236 -126 340 -65 72 -11 68 -835 68 -708 0 -745 -1 -760 -18z"/>
<path d="M1818 2356 c-157 -42 -234 -226 -168 -400 20 -52 45 -82 191 -232
234 -240 299 -346 299 -494 0 -61 -4 -72 -38 -126 -41 -62 -93 -114 -142 -139
-90 -47 -276 -56 -396 -20 -107 32 -223 150 -253 258 -8 26 -12 79 -10 124 3
67 9 86 32 122 58 87 206 119 286 61 51 -36 71 -89 71 -195 0 -99 7 -115 52
-115 49 0 61 33 56 157 -5 124 -22 170 -85 222 -42 35 -145 71 -202 71 -44 0
-125 -21 -168 -44 -52 -26 -111 -96 -134 -156 -29 -76 -29 -202 1 -289 60
-178 185 -295 366 -341 256 -66 541 44 641 248 26 52 28 66 28 172 0 106 -2
120 -29 180 -59 128 -121 208 -338 431 -98 101 -128 155 -128 229 0 100 58
160 154 160 109 0 165 -65 172 -199 3 -42 6 -82 9 -88 7 -20 60 -15 80 7 26
28 17 175 -14 247 -56 127 -190 187 -333 149z"/>
<path d="M3915 2176 c-14 -21 -15 -80 -8 -552 8 -528 8 -529 31 -566 43 -69
138 -103 162 -59 19 37 12 58 -27 78 -29 15 -41 30 -50 59 -8 27 -12 183 -12
526 -1 290 -5 497 -11 512 -13 35 -63 36 -85 2z"/>
<path d="M2350 2170 c-20 -20 -21 -28 -15 -413 3 -216 8 -412 11 -436 4 -34
15 -52 48 -86 55 -54 102 -67 128 -35 28 34 22 57 -20 84 -64 40 -67 63 -65
491 2 313 0 373 -13 392 -18 28 -48 29 -74 3z"/>
<path d="M4744 2001 c-55 -32 -81 -73 -70 -115 10 -41 35 -40 98 4 98 69 121
54 134 -92 l6 -76 -48 -7 c-76 -10 -109 -23 -144 -56 -65 -63 -89 -171 -53
-246 10 -21 36 -48 62 -65 43 -28 51 -29 132 -26 82 3 88 2 113 -23 64 -64
136 -61 136 5 0 28 -5 37 -27 48 -16 7 -37 31 -48 53 -17 35 -20 68 -25 270
-5 211 -7 234 -27 275 -29 58 -66 80 -135 80 -40 0 -65 -7 -104 -29z m166
-480 c0 -99 -2 -101 -69 -101 -47 0 -91 37 -91 75 0 61 57 114 123 115 l37 0
0 -89z"/>
<path d="M2700 1993 c-61 -33 -92 -79 -81 -121 11 -40 43 -40 94 2 46 37 84
51 105 38 18 -12 31 -74 32 -144 0 -55 -1 -58 -27 -63 -95 -20 -121 -29 -151
-51 -78 -60 -102 -192 -50 -271 40 -60 102 -87 182 -80 100 9 136 34 149 102
4 17 3 136 -1 265 -6 197 -11 241 -26 272 -39 80 -131 100 -226 51z m153 -470
c7 -99 0 -113 -61 -113 -67 0 -92 20 -92 73 0 52 23 84 75 102 70 25 71 24 78
-62z"/>
<path d="M6250 2009 c-41 -4 -167 -27 -280 -50 -241 -49 -322 -52 -513 -20
-171 28 -173 28 -217 -18 -100 -105 -110 -306 -21 -435 26 -37 38 -46 61 -46
20 0 35 8 45 24 16 23 15 28 -19 92 -31 58 -36 76 -36 133 1 79 34 157 66 154
10 -1 91 -12 179 -23 186 -25 202 -24 474 31 116 24 239 43 301 46 l105 6 45
-34 c61 -46 90 -106 90 -184 0 -74 -27 -125 -90 -173 l-45 -35 -105 6 c-67 4
-175 21 -300 48 -184 40 -204 42 -352 42 -183 0 -212 -10 -206 -66 2 -22 10
-35 26 -42 26 -12 27 -28 6 -115 -19 -80 -74 -197 -113 -239 l-29 -31 -531 0
-531 0 -16 -24 c-13 -22 -14 -29 -2 -53 l13 -28 540 -3 c388 -2 548 1 568 9
92 38 203 251 226 434 l6 50 90 -1 c58 -1 144 -13 240 -34 242 -51 323 -62
420 -58 83 4 94 7 146 40 102 66 149 155 149 283 0 132 -67 239 -184 294 -52
24 -111 30 -206 20z"/>
<path d="M3372 1998 c-8 -8 -9 -48 -5 -137 l6 -126 -62 3 c-78 5 -161 -26
-193 -71 -28 -39 -39 -182 -29 -383 8 -161 21 -193 89 -232 48 -27 147 -39
191 -24 30 11 34 9 80 -38 39 -41 53 -50 82 -50 42 0 59 15 59 52 0 21 -8 31
-31 43 -58 31 -61 52 -71 460 -8 389 -17 482 -45 503 -21 15 -55 16 -71 0z
m-18 -371 c16 -12 19 -35 23 -213 5 -167 3 -205 -10 -236 -21 -50 -54 -65
-108 -49 -62 19 -69 46 -72 267 l-2 185 33 30 c25 22 42 29 75 29 24 0 51 -6
61 -13z"/>
<path d="M4179 1954 c-11 -13 -15 -82 -17 -318 -2 -166 0 -316 3 -334 7 -36
36 -72 59 -72 8 0 22 7 30 16 14 13 16 50 16 249 0 254 4 275 52 298 38 19 75
10 96 -21 15 -23 17 -57 17 -247 1 -262 2 -285 18 -306 19 -26 53 -32 71 -13
15 15 17 47 14 308 -3 323 -4 325 -71 367 -27 17 -45 20 -119 17 -85 -4 -88
-3 -88 17 0 25 -29 55 -52 55 -9 0 -22 -7 -29 -16z"/>
<path d="M3685 1822 c-44 -8 -45 -19 -45 -359 0 -312 1 -324 21 -344 22 -22
55 -19 77 9 15 20 18 643 2 671 -11 22 -28 29 -55 23z"/>
<path d="M2345 1056 c-18 -27 -7 -69 20 -80 9 -3 151 -6 314 -6 276 0 299 1
314 18 10 10 17 29 17 42 0 47 -13 49 -342 50 l-308 0 -15 -24z"/>
<path d="M2292 611 c2 -82 7 -105 24 -127 52 -70 117 -89 187 -55 67 32 87 77
87 190 l0 91 -40 0 -40 0 0 -90 c0 -83 -2 -93 -25 -115 -31 -32 -59 -32 -90 0
-23 22 -25 32 -25 115 l0 90 -41 0 -41 0 4 -99z"/>
<path d="M2907 703 c-4 -3 -7 -69 -7 -145 l0 -138 40 0 40 0 0 40 0 40 45 0
c108 0 171 72 134 154 -18 39 -66 56 -161 56 -47 0 -88 -3 -91 -7z m179 -89
c8 -33 -7 -44 -63 -44 -42 0 -43 0 -43 35 l0 35 50 0 c45 0 50 -2 56 -26z"/>
<path d="M3338 668 c-40 -79 -118 -238 -118 -243 0 -3 18 -5 39 -5 34 0 42 4
53 28 12 25 17 27 78 27 61 0 66 -2 78 -27 11 -24 19 -28 53 -28 21 0 39 3 39
8 1 4 -30 69 -67 145 -66 134 -69 137 -100 137 -28 0 -36 -6 -55 -42z m65 -75
c2 -10 8 -26 12 -35 6 -15 2 -18 -25 -18 -27 0 -31 3 -25 18 4 9 10 25 12 35
3 9 9 17 13 17 4 0 10 -8 13 -17z"/>
<path d="M3670 566 l0 -146 35 0 c21 0 35 5 36 13 0 6 1 28 2 47 3 53 28 50
72 -10 35 -47 39 -50 81 -50 40 0 44 2 35 18 -5 9 -22 30 -36 45 l-27 28 31
30 c42 39 44 103 5 140 -23 22 -36 24 -130 27 l-104 4 0 -146z m184 58 c11
-28 -13 -44 -65 -44 -45 0 -49 2 -49 23 0 33 7 37 61 37 34 0 49 -4 53 -16z"/>
<path d="M4060 565 l0 -145 35 0 c34 0 35 1 35 38 0 25 7 45 18 55 17 16 21
13 72 -38 49 -50 58 -55 97 -55 24 0 43 3 43 8 0 4 -32 39 -70 77 l-71 70 73
67 73 67 -52 1 c-49 0 -55 -3 -111 -55 -33 -30 -62 -55 -66 -55 -3 0 -6 25 -6
55 l0 55 -35 0 -35 0 0 -145z"/>
<path d="M4450 623 c0 -112 22 -162 84 -192 53 -26 79 -26 132 0 62 30 84 80
84 192 l0 87 -40 0 -40 0 0 -90 c0 -83 -2 -93 -25 -115 -31 -32 -59 -32 -90 0
-23 22 -25 32 -25 115 l0 90 -40 0 -40 0 0 -87z"/>
</g>
</svg>
